<svg width="25" height="24" viewBox="0 0 25 24" fill="none" xmlns="http://www.w3.org/2000/svg">
<path d="M23.3311 12C23.3288 12.981 23.3177 13.962 23.3043 14.9429C23.288 16.1264 23.2698 17.3103 22.973 18.4736C22.6617 19.6933 22.0479 20.7453 21.0928 21.5241C20.0864 22.3449 18.87 22.7762 17.5571 22.8561C15.8157 22.962 14.0736 23.0038 12.3316 22.9997C10.5895 23.0038 8.84737 22.962 7.10606 22.8561C5.79314 22.7762 4.57671 22.3449 3.5703 21.5241C2.61526 20.7453 2.0014 19.6933 1.69014 18.4736C1.39332 17.3103 1.37505 16.1264 1.35888 14.9429C1.34546 13.962 1.33432 12.981 1.33203 12C1.33432 11.019 1.34546 10.038 1.35888 9.05713C1.37505 7.87365 1.39332 6.68966 1.69014 5.52645C2.0014 4.30666 2.61526 3.25467 3.5703 2.47586C4.57671 1.65515 5.79314 1.22377 7.10606 1.14393C8.84737 1.03803 10.5895 0.996172 12.3316 1.00027C14.0736 0.996172 15.8157 1.03803 17.5571 1.14393C18.87 1.22377 20.0864 1.65515 21.0928 2.47586C22.0479 3.25467 22.6617 4.30666 22.973 5.52645C23.2698 6.68966 23.288 7.87365 23.3043 9.05713C23.3177 10.038 23.3288 11.019 23.3311 12Z" stroke="#171A1A" stroke-width="1.4" stroke-miterlimit="10"/>
<path d="M17.1788 11.9995C17.1788 14.7024 14.9876 16.8936 12.2847 16.8936C9.58177 16.8936 7.39062 14.7024 7.39062 11.9995C7.39062 9.29656 9.58177 7.10541 12.2847 7.10541C14.9876 7.10541 17.1788 9.29656 17.1788 11.9995Z" stroke="#171A1A" stroke-width="1.4" stroke-miterlimit="10"/>
<path d="M20.1638 5.70716C20.1638 6.4794 19.5377 7.10547 18.7655 7.10547C17.9933 7.10547 17.3672 6.4794 17.3672 5.70716C17.3672 4.93493 17.9933 4.30886 18.7655 4.30886C19.5377 4.30886 20.1638 4.93493 20.1638 5.70716Z" fill="#171A1A"/>
</svg>
