<svg width="23" height="18" viewBox="0 0 23 18" fill="none" xmlns="http://www.w3.org/2000/svg">
<path d="M8.72656 11.9238L14.377 8.70745L8.72656 5.49107V11.9238Z" stroke="#171A1A" stroke-width="1.4" stroke-miterlimit="10" stroke-linecap="round" stroke-linejoin="round"/>
<path d="M21.3317 8.71837C21.3317 10.4348 21.1795 11.999 21.0058 13.2256C20.7802 14.8188 19.4932 16.049 17.8918 16.2058C16.1926 16.3721 13.7918 16.542 11.074 16.542C8.35625 16.542 5.95548 16.3721 4.25632 16.2058C2.65487 16.049 1.36789 14.8188 1.14226 13.2256C0.968576 11.999 0.816406 10.4348 0.816406 8.71837C0.816406 7.00195 0.968576 5.43771 1.14226 4.21118C1.36789 2.61798 2.65487 1.38772 4.25632 1.23094C5.95548 1.0646 8.35625 0.894744 11.074 0.894744C13.7918 0.894744 16.1926 1.0646 17.8918 1.23094C19.4932 1.38772 20.7802 2.61798 21.0058 4.21118C21.1795 5.43771 21.3317 7.00195 21.3317 8.71837Z" stroke="#171A1A" stroke-width="1.4" stroke-miterlimit="10" stroke-linecap="round" stroke-linejoin="round"/>
</svg>
